<svg width="22" height="6" viewBox="0 0 22 6" fill="none" xmlns="http://www.w3.org/2000/svg">
<path d="M3.40182 0.333328C1.9597 0.333328 0.779785 1.53333 0.779785 2.99999C0.779785 4.46666 1.9597 5.66666 3.40182 5.66666C4.84394 5.66666 6.02386 4.46666 6.02386 2.99999C6.02386 1.53333 4.84394 0.333328 3.40182 0.333328ZM19.134 0.333328C17.6919 0.333328 16.512 1.53333 16.512 2.99999C16.512 4.46666 17.6919 5.66666 19.134 5.66666C20.5762 5.66666 21.7561 4.46666 21.7561 2.99999C21.7561 1.53333 20.5762 0.333328 19.134 0.333328ZM11.2679 0.333328C9.82581 0.333328 8.64589 1.53333 8.64589 2.99999C8.64589 4.46666 9.82581 5.66666 11.2679 5.66666C12.71 5.66666 13.89 4.46666 13.89 2.99999C13.89 1.53333 12.71 0.333328 11.2679 0.333328Z" fill="#8D89A5"/>
</svg>
